<svg width="24" height="24" viewBox="0 0 24 24" fill="none" xmlns="http://www.w3.org/2000/svg">
<path d="M3.34086 17.0001C6.10186 21.7831 12.2179 23.4211 17.0009 20.6601C18.8767 19.581 20.35 17.9202 21.1979 15.9291C21.8086 14.5013 22.078 12.9508 21.9848 11.4007C21.8916 9.85054 21.4383 8.34348 20.6609 6.99915C19.8852 5.65423 18.8068 4.5086 17.5112 3.65318C16.2155 2.79776 14.7384 2.25608 13.1969 2.07115C11.0486 1.80945 8.87359 2.25457 7.00086 3.33915C2.21786 6.10115 0.580864 12.2171 3.34086 17.0001Z" stroke="#6FBF45" stroke-width="1.5"/>
<path opacity="0.5" d="M13.1977 2.07129C13.1977 2.07129 12.9657 5.67029 15.4657 10.0013C17.9657 14.3323 21.1987 15.9293 21.1987 15.9293M2.80469 8.07129C2.80469 8.07129 6.03769 9.67029 8.53769 14.0013C11.0377 18.3323 10.8057 21.9293 10.8057 21.9293" stroke="#6FBF45" stroke-width="1.5"/>
</svg>
